<?xml version="1.0" ?><svg enable-background="new 0 0 32 32" height="32px" id="svg2" version="1.1" viewBox="0 0 32 32" width="32px" xml:space="preserve" xmlns="http://www.w3.org/2000/svg" xmlns:cc="http://creativecommons.org/ns#" xmlns:dc="http://purl.org/dc/elements/1.1/" xmlns:inkscape="http://www.inkscape.org/namespaces/inkscape" xmlns:rdf="http://www.w3.org/1999/02/22-rdf-syntax-ns#" xmlns:sodipodi="http://sodipodi.sourceforge.net/DTD/sodipodi-0.dtd" xmlns:svg="http://www.w3.org/2000/svg"><g id="background"><rect fill="none" height="32" width="32"/></g><g id="upload_x5F_accept"><path d="M14,14h4V8h4l-6-6l-6,6h4V14z M23,14c-3.121,0-5.869,1.588-7.483,4H2v8h12.523c1.237,3.493,4.559,5.999,8.477,5.999   c4.971,0,8.999-4.028,8.999-8.999C31.999,18.028,27.971,14,23,14z M8,24H4v-2h4V24z M23,29.999c-3.865-0.008-6.994-3.135-7-6.999   c0.006-3.865,3.135-6.994,7-7c3.864,0.006,6.991,3.135,6.999,7C29.991,26.864,26.864,29.991,23,29.999z"/><polygon points="18,23 20,21 22,23 26,19 28,21 22,27  "/></g></svg>